<svg width="18" height="22" viewBox="0 0 18 22" fill="none" xmlns="http://www.w3.org/2000/svg">
<path d="M15.0447 11.76C15.0447 9.0733 17.1992 7.7733 17.3716 7.68663C16.0788 5.86663 14.1829 5.60663 13.4934 5.60663C11.856 5.4333 10.3047 6.55996 9.44288 6.55996C8.58107 6.55996 7.28835 5.60663 5.90945 5.60663C4.09964 5.60663 2.4622 6.64663 1.60039 8.2933C-0.2956 11.5866 1.0833 16.3533 2.89311 18.9533C3.75492 20.2533 4.87528 21.7266 6.25418 21.64C7.63308 21.5533 8.06398 20.7733 9.70143 20.7733C11.3389 20.7733 11.7698 21.64 13.1487 21.64C14.6138 21.64 15.4756 20.34 16.3374 19.04C17.3716 17.5666 17.8025 16.0933 17.8025 16.0066C17.8025 16.0933 15.0447 14.9666 15.0447 11.76Z" fill="white"/>
<path d="M12.373 3.87329C13.0624 3.00662 13.5795 1.70662 13.4934 0.493286C12.4592 0.579953 11.1665 1.18662 10.3908 2.13995C9.70138 2.91995 9.09811 4.21995 9.27047 5.43329C10.3908 5.51995 11.5974 4.82662 12.373 3.87329Z" fill="white"/>
</svg>
