<svg width="78" height="79" viewBox="0 0 78 79" fill="none" xmlns="http://www.w3.org/2000/svg">
<path d="M71.4999 62.9364C72.2999 66.0066 72.8499 69.3284 72.8499 72.5999V77.5324H1.3999V72.5999C1.3999 57.9033 10.1999 45.1695 22.8499 39.6331" stroke="#FF0000" stroke-width="2" stroke-miterlimit="10" stroke-linejoin="round"/>
<path d="M50.95 39.4822C53.6 40.5895 56.15 42.1497 58.5 43.9113" stroke="#FF0000" stroke-width="2" stroke-miterlimit="10" stroke-linejoin="round"/>
<path d="M23.7999 40.3377C27.4499 43.2066 32.0499 44.9682 37.0499 44.9682C42.0499 44.9682 46.6499 43.2066 50.2999 40.3377C55.1999 36.4119 58.3499 30.3722 58.4499 23.5775C58.5499 11.649 48.9499 1.88477 37.2499 1.7841C25.2999 1.68344 15.5999 11.347 15.5999 23.3762C15.6499 30.2715 18.7999 36.3113 23.7999 40.3377Z" stroke="#FF0000" stroke-width="2" stroke-miterlimit="10" stroke-linejoin="round"/>
<path d="M65.05 64.5974C71.3184 64.5974 76.4 59.4822 76.4 53.1722C76.4 46.8623 71.3184 41.7471 65.05 41.7471C58.7815 41.7471 53.7 46.8623 53.7 53.1722C53.7 59.4822 58.7815 64.5974 65.05 64.5974Z" stroke="#FF0000" stroke-width="2" stroke-miterlimit="10" stroke-linejoin="round"/>
<path d="M58.3999 53.5749L62.3999 57.6014L71.5999 48.6425" stroke="#FF0000" stroke-width="2" stroke-miterlimit="10" stroke-linejoin="round"/>
</svg>
